<svg xmlns="http://www.w3.org/2000/svg" xmlns:xlink="http://www.w3.org/1999/xlink" xmlns:a="http://ns.adobe.com/AdobeSVGViewerExtensions/3.0/" version="1.1" x="0px" y="0px" width="100px" height="100px" viewBox="-17.572 -28.926 100 100" enable-background="new -17.572 -28.926 100 100" xml:space="preserve">
<defs>
</defs>
<path d="M3.387,31.881c0-1.274,1.033-2.308,2.307-2.308h22.949c1.275,0,2.309,1.033,2.309,2.308l0,0  c0,1.273-1.033,2.307-2.309,2.307H5.693C4.42,34.188,3.387,33.154,3.387,31.881L3.387,31.881z"/>
<path d="M55.334,20.103H54.83c-0.677-12.125-22.518-7.572-31.503-6.226c-1.347-1.277-2.884-2.173-4.54-2.568V8.05  c1.061-0.479,1.932-1.33,2.461-2.399h5.948c0.494,1.444,1.859,2.483,3.47,2.483c2.027,0,3.671-1.644,3.671-3.67  c0-2.028-1.644-3.671-3.671-3.671c-1.61,0-2.976,1.039-3.47,2.482H21.81c0-0.011,0.002-0.021,0.002-0.032V1.622  C21.812,0.727,21.086,0,20.189,0h-6.734c-0.896,0-1.621,0.727-1.621,1.622v1.621c0,0.011,0,0.021,0,0.032H7.141  C6.646,1.832,5.281,0.793,3.67,0.793C1.645,0.793,0,2.436,0,4.464c0,2.026,1.645,3.67,3.67,3.67c1.611,0,2.977-1.039,3.471-2.483  h5.256c0.537,1.085,1.424,1.943,2.506,2.418v3.24c-5.584,1.334-9.844,8.313-9.844,16.729h23.572c0-3.214-0.622-6.216-1.701-8.775  c8.57-1.521,20.441-4.706,22.504,0.84h-0.901c-0.864,0-1.565,0.701-1.565,1.564c0,0.865,0.701,1.566,1.565,1.566h6.802  c0.863,0,1.564-0.701,1.564-1.566C56.898,20.804,56.197,20.103,55.334,20.103z"/>
<path d="M49.002,30.786c0,3.555,1.42,6.436,3.17,6.436c1.752,0,3.172-2.881,3.172-6.436c0-3.554-3.172-6.435-3.172-6.435  S49.002,27.232,49.002,30.786z"/>
</svg>