<svg xmlns="http://www.w3.org/2000/svg" xmlns:xlink="http://www.w3.org/1999/xlink" version="1.1" id="&#1057;&#1083;&#1086;&#1081;_1" x="0px" y="0px" width="100px" height="100px" viewBox="0 0 100 100" enable-background="new 0 0 100 100" xml:space="preserve">
<path d="M69.024,50.57c-3.84,0-2.3,1.303-9.883,6.041c-3.166,1.976-6.89,2.245-8.735,2.243l-0.047-0.047  c0,0-0.194,0.021-0.552,0.033c-0.347-0.013-0.552-0.033-0.552-0.033l-0.042,0.047c-1.842,0.001-5.577-0.268-8.74-2.243  c-7.586-4.738-6.038-6.041-9.886-6.041c-2.198,0-11.534,2.196-15.377,7.686C9.358,66.627,8.619,95,8.619,95H91  c0,0-0.732-28.373-6.59-36.744C80.559,52.767,71.228,50.57,69.024,50.57z M50.37,50.486c11.34-0.964,19.653-11.913,18.588-24.456  C67.892,13.49,57.84,4.103,46.497,5.068c-11.324,0.968-19.653,11.92-18.571,24.457C28.988,42.071,39.044,51.453,50.37,50.486z"/>
</svg>