<svg xmlns="http://www.w3.org/2000/svg" xmlns:xlink="http://www.w3.org/1999/xlink" version="1.1" id="Layer_1" x="0px" y="0px" width="100px" height="100px" viewBox="0 0 100 100" enable-background="new 0 0 100 100" xml:space="preserve">
<path fill="#000000" d="M49.68,4.735c-26.233,0-47.5,21.267-47.5,47.5c0,11.953,4.425,22.866,11.713,31.215  c1.687-4.672,7.224-8.066,12.339-10.894l0.424-0.234c1.59-0.88,4.549-2.517,7.297-3.619c0.297-0.12,0.61-0.24,0.932-0.362  c2.631-1.002,4.51-1.872,4.712-3.955c0.176-1.813-0.724-2.952-1.968-4.528c-0.319-0.404-0.651-0.825-0.98-1.276  c-5.184-7.127-7.441-14.515-6.9-22.586c0.702-10.474,7.301-17.689,17.22-18.83c1.04-0.12,2.075-0.181,3.078-0.181  c5.919,0,10.933,2.045,14.5,5.913c4.036,4.376,5.848,10.658,5.239,18.168c-0.338,4.201-2.016,9.417-4.377,13.612  c-0.609,1.085-1.432,2.153-2.228,3.186c-1.945,2.527-3.783,4.914-3.05,7.707c0.478,1.812,4.566,3.322,7.01,4.225  c0.723,0.268,1.357,0.503,1.828,0.71c4.958,2.176,14.121,6.207,16.556,12.879c7.254-8.34,11.655-19.227,11.655-31.148  C97.179,26.002,75.913,4.735,49.68,4.735z"/>
</svg>